<svg width="143" height="48" viewBox="0 0 143 48" fill="none" xmlns="http://www.w3.org/2000/svg">
<rect width="143" height="48" rx="2" fill="white"/>
<g clip-path="url(#clip0_1238_1576)">
<mask id="mask0_1238_1576" style="mask-type:luminance" maskUnits="userSpaceOnUse" x="12" y="8" width="123" height="32">
<path d="M134.958 8H12V40H134.958V8Z" fill="white"/>
</mask>
<g mask="url(#mask0_1238_1576)">
<path d="M12 10.832H19.8345V13.7378H17.4406V26.4274H14.3939V13.7378H12V10.832Z" fill="#6BAB44"/>
<path d="M21.2129 10.832H27.3426V13.7378H24.2596V17.1217H26.9799V20.0275H24.2596V23.5217H27.3789V26.4274H21.2129V10.832Z" fill="#6BAB44"/>
<path d="M36.8818 10.9427V13.7749C36.4828 13.6645 36.0838 13.591 35.7574 13.591C34.4879 13.591 33.5449 14.1059 32.8557 15.1358C32.2391 16.0186 31.9489 17.1588 31.9489 18.4829C31.9489 19.8071 32.2391 20.9473 32.8557 21.9404C33.5811 23.0806 34.5242 23.6691 35.7574 23.6691C36.0475 23.6691 36.4465 23.5956 36.918 23.4485V26.3542C36.4828 26.5381 36.0113 26.6116 35.5035 26.6116C33.3998 26.6116 31.7313 25.7657 30.4256 24.0737C29.2649 22.5289 28.6846 20.6898 28.6846 18.4829C28.6846 16.4232 29.2649 14.6209 30.4618 13.1128C31.7676 11.4576 33.3998 10.6484 35.3584 10.6484C35.8662 10.6484 36.374 10.722 36.8818 10.9427Z" fill="#6BAB44"/>
<path d="M38.4414 10.832H41.4881V16.9378H44.5712V10.832H47.6179V26.4274H44.5712V19.8435H41.4881V26.4274H38.4414V10.832Z" fill="#6BAB44"/>
<path d="M50.5198 10.832H54.5095L55.9966 20.0275H56.0329L57.2661 10.832H61.3284L62.9606 26.4274H59.8413L59.1159 15.2091H59.0434L58.5719 19.0343L57.2661 26.4274H54.9085L53.4214 18.9607L52.9136 15.4665V15.2091H52.8774L52.4421 26.4274H49.1777L50.5198 10.832Z" fill="#0868A0"/>
<path d="M67.1678 10.832H70.3596L74.0593 26.4274H70.8312L70.2508 23.816H67.1678L66.6238 26.4274H63.6133L67.1678 10.832ZM69.7793 21.3516L69.0176 17.1953L68.6549 14.8412H68.6186L68.2922 17.1953L67.6393 21.3516H69.7793Z" fill="#0868A0"/>
<path d="M80.1888 17.7466H85.1579V18.9604C85.1579 21.057 84.8677 22.7857 84.2511 24.0363C83.4169 25.8018 82.0749 26.6478 80.2251 26.6478C78.339 26.6478 76.9244 25.765 75.9089 23.9627C75.1109 22.5282 74.7119 20.7627 74.7119 18.703C74.7119 16.4961 75.0746 14.6938 75.8363 13.2961C76.7793 11.4938 78.2302 10.5742 80.1888 10.5742C81.3132 10.5742 82.2925 10.9053 83.0905 11.6041C83.8521 12.2662 84.3962 13.1489 84.7226 14.2892L81.7484 15.4662C81.5308 14.142 80.9868 13.48 80.1888 13.4432C79.282 13.4064 78.6654 14.0685 78.3027 15.4662C78.0488 16.3489 77.94 17.4156 77.94 18.6662C77.94 22.1236 78.738 23.8524 80.2976 23.8524C80.9868 23.8524 81.4583 23.4478 81.7847 22.6386C82.0023 22.0869 82.0749 21.4248 82.0749 20.6524H80.1888V17.7466Z" fill="#0868A0"/>
<path d="M86.7539 10.832H89.6556L93.464 20.2481L93.5003 20.2114C93.3189 19.5493 93.2464 18.7768 93.2464 17.8573V10.832H96.2931V26.4274H93.4277L89.6556 17.0114L89.6193 17.0481L89.8006 18.6298V19.255V26.4274H86.7539V10.832Z" fill="#0868A0"/>
<path d="M101.117 10.832H104.309L108.008 26.4274H104.78L104.2 23.816H101.117L100.573 26.4274H97.5625L101.117 10.832ZM103.765 21.3516L102.967 17.1953L102.604 14.8412H102.568L102.241 17.1953L101.589 21.3516H103.765Z" fill="#0868A0"/>
<path d="M108.48 10.832H116.314V13.7378H113.884V26.4274H110.838V13.7378H108.48V10.832Z" fill="#0868A0"/>
<path d="M117.693 10.832H123.823V13.7378H120.74V17.1217H123.424V20.0275H120.74V23.5217H123.859V26.4274H117.693V10.832Z" fill="#0868A0"/>
<path d="M13.0879 38.1992V32.2773H15.0828C15.518 32.2773 15.8807 32.3141 16.1346 32.3509C16.4611 32.4245 16.7512 32.5716 16.9689 32.7923C17.2953 33.0498 17.5129 33.3808 17.658 33.7854C17.8031 34.19 17.8756 34.6681 17.8756 35.1831C17.8756 35.6245 17.8394 36.0291 17.7305 36.3969C17.6217 36.7279 17.5129 37.0222 17.3316 37.2429C17.1502 37.4636 17.0051 37.6475 16.7875 37.7946C16.6062 37.9417 16.3523 38.0153 16.0984 38.0888C15.8445 38.1624 15.518 38.1992 15.1553 38.1992H13.0879ZM13.8496 37.5371H15.0828C15.4818 37.5371 15.7719 37.5003 15.9896 37.4268C16.2072 37.3532 16.3885 37.2429 16.4973 37.1325C16.6787 36.9486 16.8238 36.6911 16.9326 36.3969C17.0414 36.0658 17.0777 35.698 17.0777 35.2567C17.0777 34.6314 16.9689 34.1532 16.7875 33.8222C16.6062 33.4911 16.3523 33.2704 16.0621 33.1601C15.8445 33.0865 15.518 33.0498 15.0828 33.0498H13.8496V37.5371Z" fill="#171717"/>
<path d="M21.6841 33.1233V32.2773H22.4095V33.1233H21.6841ZM21.6841 38.1992V33.9325H22.4095V38.236L21.6841 38.1992Z" fill="#171717"/>
<path d="M26.1817 38.5651L26.8708 38.6755C26.9071 38.8962 26.9797 39.0433 27.1247 39.1536C27.3061 39.3008 27.56 39.3376 27.8502 39.3376C28.1766 39.3376 28.4305 39.264 28.6118 39.1536C28.7932 39.0065 28.902 38.8226 28.9745 38.6019C29.0108 38.4548 29.0108 38.1605 29.0108 37.6824C28.6844 38.0502 28.3217 38.2341 27.8502 38.2341C27.2698 38.2341 26.8346 38.0134 26.5081 37.6088C26.1817 37.1674 26.0366 36.6893 26.0366 36.064C26.0366 35.6594 26.1091 35.2916 26.2542 34.9238C26.3993 34.5927 26.617 34.2985 26.8708 34.1146C27.161 33.9307 27.4875 33.8203 27.8502 33.8203C28.3579 33.8203 28.7569 34.041 29.0833 34.4456V33.9307H29.7362V37.6456C29.7362 38.3077 29.6637 38.7858 29.5549 39.0801C29.4098 39.3743 29.1921 39.595 28.902 39.7422C28.6118 39.8893 28.2491 39.9996 27.8502 39.9996C27.3424 39.9996 26.9434 39.8893 26.6169 39.6686C26.3268 39.3743 26.1454 39.0433 26.1817 38.5651ZM26.762 35.9904C26.762 36.5422 26.8708 36.9468 27.0884 37.2042C27.3061 37.4617 27.5963 37.6088 27.9227 37.6088C28.2491 37.6088 28.5393 37.4985 28.7569 37.241C28.9746 36.9835 29.0833 36.5789 29.0833 36.0272C29.0833 35.5123 28.9746 35.1077 28.7569 34.8502C28.5393 34.5927 28.2491 34.4456 27.9227 34.4456C27.5963 34.4456 27.3424 34.5927 27.1247 34.8502C26.8708 35.0709 26.762 35.4755 26.762 35.9904Z" fill="#171717"/>
<path d="M33.6538 33.1233V32.2773H34.3792V33.1233H33.6538ZM33.6538 38.1992V33.9325H34.3792V38.236L33.6538 38.1992Z" fill="#171717"/>
<path d="M39.8195 37.5752L39.9283 38.2005C39.7106 38.2373 39.5656 38.2741 39.3842 38.2741C39.1303 38.2741 38.9127 38.2373 38.7676 38.1637C38.6225 38.0901 38.5137 37.9798 38.4774 37.8327C38.4049 37.6855 38.4049 37.3913 38.4049 36.9867V34.4856H37.8608V33.9338H38.4049V32.8672L39.1303 32.4258V33.9338H39.8557V34.4856H39.1303V36.9867C39.1303 37.2074 39.1303 37.3177 39.1666 37.3913C39.2029 37.4649 39.2391 37.5016 39.2754 37.5384C39.3479 37.5752 39.4205 37.5752 39.5293 37.5752C39.5656 37.612 39.6744 37.5752 39.8195 37.5752Z" fill="#171717"/>
<path d="M46.0943 37.684C45.8404 37.9047 45.5865 38.0886 45.3326 38.1622C45.0787 38.2725 44.8248 38.3093 44.5347 38.3093C44.0632 38.3093 43.7004 38.1989 43.4828 37.9783C43.2289 37.7576 43.1201 37.4633 43.1201 37.0955C43.1201 36.8748 43.1564 36.6909 43.2652 36.507C43.374 36.3231 43.4828 36.2127 43.6279 36.1024C43.773 35.9921 43.9543 35.9185 44.1357 35.8449C44.2808 35.8081 44.4984 35.7714 44.7886 35.7346C45.3689 35.661 45.8042 35.5875 46.058 35.4771C46.058 35.3668 46.058 35.33 46.058 35.2932C46.058 34.9989 45.9855 34.7783 45.8404 34.6679C45.6591 34.5208 45.3689 34.4104 45.0425 34.4104C44.716 34.4104 44.4621 34.484 44.2808 34.5944C44.1357 34.7047 43.9906 34.9254 43.9181 35.2196L43.2289 35.1093C43.3015 34.815 43.4103 34.5576 43.5554 34.3737C43.7004 34.1898 43.9181 34.0426 44.172 33.9323C44.4621 33.8219 44.7523 33.7852 45.115 33.7852C45.4777 33.7852 45.7679 33.8219 45.9855 33.9323C46.2031 34.0058 46.3845 34.1162 46.4933 34.2633C46.6021 34.4104 46.6746 34.5576 46.7109 34.7783C46.7472 34.8886 46.7472 35.1093 46.7472 35.4403V36.3966C46.7472 37.0587 46.7472 37.5001 46.7835 37.684C46.8197 37.8679 46.856 38.0518 46.9648 38.1989H46.2031C46.1669 38.0518 46.1306 37.8679 46.0943 37.684ZM46.0218 36.0656C45.7679 36.176 45.3689 36.2495 44.8611 36.3231C44.5709 36.3599 44.3533 36.3967 44.2445 36.4702C44.1357 36.5438 44.0269 36.6173 43.9543 36.6909C43.8818 36.8012 43.8455 36.9116 43.8455 37.0219C43.8455 37.2058 43.9181 37.3898 44.0632 37.5001C44.2082 37.6472 44.4259 37.684 44.6798 37.684C44.9699 37.684 45.1875 37.6104 45.4052 37.5001C45.6228 37.3898 45.7679 37.2058 45.8767 36.9852C45.9492 36.838 45.9855 36.5806 45.9855 36.2495L46.0218 36.0656Z" fill="#171717"/>
<path d="M50.6646 38.1992V32.2773H51.39V38.1992H50.6646Z" fill="#171717"/>
<path d="M60.4941 38.1992V32.2773H64.6653V32.9762H61.2558V34.8153H64.4477V35.5141H61.2558V37.5371H64.8104V38.1992H60.4941Z" fill="#171717"/>
<path d="M68.1108 38.2003L69.6342 35.9934L68.2197 33.9336H69.0901L69.743 34.9635C69.8518 35.1474 69.9606 35.2945 70.0332 35.4416C70.142 35.2577 70.2508 35.1106 70.3596 34.9635L71.0488 33.9336H71.9193L70.4684 35.9934L71.9918 38.2003H71.1213L70.2508 36.8761L70.0695 36.5451L68.9451 38.2003H68.1108Z" fill="#171717"/>
<path d="M78.2304 36.6525L78.9196 36.7628C78.847 37.241 78.6657 37.6456 78.3392 37.9031C78.0128 38.1973 77.6501 38.3077 77.1786 38.3077C76.5982 38.3077 76.1267 38.1238 75.8003 37.7192C75.4376 37.3513 75.2925 36.7996 75.2925 36.064C75.2925 35.5858 75.365 35.1812 75.5101 34.8502C75.6552 34.5192 75.8728 34.2617 76.1992 34.0778C76.4894 33.8939 76.8521 33.8203 77.2148 33.8203C77.6864 33.8203 78.0491 33.9307 78.3392 34.1881C78.6294 34.4088 78.8107 34.7766 78.8833 35.1812L78.1941 35.2916C78.1216 34.9973 78.0128 34.7766 77.8314 34.6295C77.6501 34.4824 77.4687 34.4088 77.2148 34.4088C76.8521 34.4088 76.562 34.5559 76.3443 34.8134C76.1267 35.0709 76.0179 35.4755 76.0179 36.064C76.0179 36.6525 76.1267 37.0571 76.3443 37.3146C76.562 37.572 76.8521 37.7192 77.1786 37.7192C77.4687 37.7192 77.6864 37.6456 77.8677 37.4617C78.0853 37.2778 78.1941 37.0203 78.2304 36.6525Z" fill="#171717"/>
<path d="M85.2306 36.8387L85.956 36.949C85.8472 37.3904 85.6296 37.7214 85.3032 37.9789C84.9767 38.2364 84.5777 38.3467 84.1062 38.3467C83.4896 38.3467 83.0181 38.1628 82.6554 37.7582C82.2927 37.3904 82.1113 36.8387 82.1113 36.1398C82.1113 35.4042 82.2927 34.8525 82.6554 34.4479C83.0181 34.0433 83.4896 33.8594 84.0699 33.8594C84.614 33.8594 85.0855 34.0433 85.4482 34.4479C85.8109 34.8525 85.9923 35.4042 85.9923 36.1031C85.9923 36.1398 85.9923 36.2134 85.9923 36.287H82.8367C82.873 36.7651 82.9818 37.1329 83.2357 37.3536C83.4533 37.6111 83.7798 37.7214 84.1062 37.7214C84.3601 37.7214 84.5777 37.6479 84.7591 37.5008C84.9767 37.3536 85.1218 37.1329 85.2306 36.8387ZM82.9093 35.6617H85.2669C85.2306 35.2939 85.1581 35.0364 85.013 34.8525C84.7954 34.5582 84.5052 34.4479 84.1425 34.4479C83.8161 34.4479 83.5259 34.5582 83.3083 34.7789C83.0544 34.9996 82.9456 35.2939 82.9093 35.6617Z" fill="#171717"/>
<path d="M89.6919 38.1992V32.2773H90.4173V38.1992H89.6919Z" fill="#171717"/>
<path d="M94.3345 38.1992V32.2773H95.0236V38.1992H94.3345Z" fill="#171717"/>
<path d="M101.842 36.8387L102.568 36.949C102.459 37.3904 102.241 37.7214 101.915 37.9789C101.589 38.2364 101.19 38.3467 100.718 38.3467C100.101 38.3467 99.6299 38.1628 99.2672 37.7582C98.9045 37.3904 98.7231 36.8387 98.7231 36.1398C98.7231 35.4042 98.9045 34.8525 99.2672 34.4479C99.6299 34.0433 100.101 33.8594 100.682 33.8594C101.226 33.8594 101.697 34.0433 102.06 34.4479C102.423 34.8525 102.604 35.4042 102.604 36.1031C102.604 36.1398 102.604 36.2134 102.604 36.287H99.4848C99.5211 36.7651 99.6299 37.1329 99.8838 37.3536C100.101 37.6111 100.428 37.7214 100.754 37.7214C101.008 37.7214 101.226 37.6479 101.407 37.5008C101.589 37.3536 101.734 37.1329 101.842 36.8387ZM99.4848 35.6617H101.842C101.806 35.2939 101.734 35.0364 101.589 34.8525C101.371 34.5582 101.081 34.4479 100.718 34.4479C100.392 34.4479 100.101 34.5582 99.8838 34.7789C99.6299 34.9996 99.5211 35.2939 99.4848 35.6617Z" fill="#171717"/>
<path d="M106.304 38.1996V33.9329H106.957V34.5582C107.284 34.0801 107.719 33.8594 108.299 33.8594C108.553 33.8594 108.771 33.8962 108.988 34.0065C109.206 34.1168 109.351 34.2272 109.46 34.3743C109.569 34.5214 109.641 34.7054 109.677 34.926C109.714 35.0732 109.714 35.2939 109.714 35.6249V38.2732H108.988V35.6617C108.988 35.3674 108.952 35.1467 108.916 34.9996C108.843 34.8525 108.771 34.7421 108.626 34.6318C108.48 34.5582 108.335 34.4847 108.118 34.4847C107.828 34.4847 107.537 34.595 107.32 34.7789C107.102 34.9628 106.993 35.3306 106.993 35.8824V38.2364L106.304 38.1996Z" fill="#171717"/>
<path d="M116.387 36.6525L117.076 36.7628C117.004 37.241 116.822 37.6456 116.496 37.9031C116.17 38.1973 115.807 38.3077 115.335 38.3077C114.755 38.3077 114.283 38.1238 113.957 37.7192C113.594 37.3513 113.449 36.7996 113.449 36.064C113.449 35.5858 113.522 35.1812 113.667 34.8502C113.812 34.5192 114.03 34.2617 114.356 34.0778C114.646 33.8939 115.009 33.8203 115.372 33.8203C115.843 33.8203 116.206 33.9307 116.496 34.1881C116.786 34.4088 116.967 34.7766 117.04 35.1812L116.351 35.2916C116.278 34.9973 116.17 34.7766 115.988 34.6295C115.807 34.4824 115.625 34.4088 115.372 34.4088C115.009 34.4088 114.719 34.5559 114.501 34.8134C114.283 35.0709 114.175 35.4755 114.175 36.064C114.175 36.6525 114.283 37.0571 114.501 37.3146C114.719 37.572 115.009 37.7192 115.335 37.7192C115.625 37.7192 115.843 37.6456 116.024 37.4617C116.206 37.2778 116.351 37.0203 116.387 36.6525Z" fill="#171717"/>
<path d="M123.387 36.8387L124.113 36.949C124.004 37.3904 123.786 37.7214 123.46 37.9789C123.133 38.2364 122.734 38.3467 122.263 38.3467C121.646 38.3467 121.175 38.1628 120.812 37.7582C120.449 37.3904 120.268 36.8387 120.268 36.1398C120.268 35.4042 120.449 34.8525 120.812 34.4479C121.175 34.0433 121.646 33.8594 122.227 33.8594C122.807 33.8594 123.242 34.0433 123.605 34.4479C123.968 34.8525 124.149 35.4042 124.149 36.1031C124.149 36.1398 124.149 36.2134 124.149 36.287H120.993C121.03 36.7651 121.139 37.1329 121.392 37.3536C121.61 37.6111 121.937 37.7214 122.263 37.7214C122.517 37.7214 122.734 37.6479 122.916 37.5008C123.133 37.3536 123.279 37.1329 123.387 36.8387ZM121.03 35.6617H123.387C123.351 35.2939 123.279 35.0364 123.133 34.8525C122.916 34.5582 122.626 34.4479 122.263 34.4479C121.937 34.4479 121.646 34.5582 121.429 34.7789C121.211 34.9996 121.066 35.2939 121.03 35.6617Z" fill="#171717"/>
<path fill-rule="evenodd" clip-rule="evenodd" d="M12.6167 29.6641H123.932V29.848H12.6167V29.6641Z" stroke="#171717" stroke-miterlimit="10"/>
<path d="M128.355 15.2964V11.3154H130.345C130.504 11.3154 130.678 11.3622 130.866 11.4557C131.054 11.5456 131.214 11.6858 131.345 11.8764C131.48 12.0634 131.547 12.3008 131.547 12.5885C131.547 12.8798 131.478 13.1279 131.34 13.3329C131.201 13.5343 131.033 13.6871 130.834 13.7914C130.639 13.8957 130.455 13.9478 130.281 13.9478H128.845V13.3005H130.015C130.132 13.3005 130.258 13.2412 130.393 13.1225C130.531 13.0038 130.6 12.8259 130.6 12.5885C130.6 12.3439 130.531 12.1785 130.393 12.0922C130.258 12.0059 130.139 11.9627 130.036 11.9627H129.217V15.2964H128.355ZM130.728 13.4192L131.706 15.2964H130.76L129.802 13.4192H130.728ZM129.845 17.6699C129.256 17.6699 128.705 17.5584 128.19 17.3354C127.676 17.1125 127.224 16.8032 126.834 16.4076C126.444 16.0121 126.139 15.5535 125.919 15.0321C125.699 14.5106 125.589 13.9514 125.589 13.3545C125.589 12.7575 125.699 12.1983 125.919 11.6769C126.139 11.1554 126.444 10.6969 126.834 10.3013C127.224 9.90574 127.676 9.59647 128.19 9.37351C128.705 9.15054 129.256 9.03906 129.845 9.03906C130.433 9.03906 130.985 9.15054 131.499 9.37351C132.013 9.59647 132.466 9.90574 132.855 10.3013C133.246 10.6969 133.551 11.1554 133.771 11.6769C133.99 12.1983 134.1 12.7575 134.1 13.3545C134.1 13.9514 133.99 14.5106 133.771 15.0321C133.551 15.5535 133.246 16.0121 132.855 16.4076C132.466 16.8032 132.013 17.1125 131.499 17.3354C130.985 17.5584 130.433 17.6699 129.845 17.6699ZM129.845 16.6342C130.441 16.6342 130.983 16.4867 131.472 16.1918C131.962 15.897 132.352 15.5014 132.643 15.0051C132.933 14.5088 133.079 13.9586 133.079 13.3545C133.079 12.7503 132.933 12.2001 132.643 11.7038C132.352 11.2076 131.962 10.812 131.472 10.5171C130.983 10.2222 130.441 10.0748 129.845 10.0748C129.249 10.0748 128.706 10.2222 128.217 10.5171C127.728 10.812 127.338 11.2076 127.047 11.7038C126.756 12.2001 126.611 12.7503 126.611 13.3545C126.611 13.9586 126.756 14.5088 127.047 15.0051C127.338 15.5014 127.728 15.897 128.217 16.1918C128.706 16.4867 129.249 16.6342 129.845 16.6342Z" fill="#171717"/>
</g>
</g>
<defs>
<clipPath id="clip0_1238_1576">
<rect width="122.958" height="32" fill="white" transform="translate(12 8)"/>
</clipPath>
</defs>
</svg>
