<svg width="168" height="40" viewBox="0 0 168 40" fill="none" xmlns="http://www.w3.org/2000/svg">
<mask id="mask0_8877_424" style="mask-type:luminance" maskUnits="userSpaceOnUse" x="7" y="0" width="155" height="40">
<path d="M161.328 0H7.63037V40H161.328V0Z" fill="white"/>
</mask>
<g mask="url(#mask0_8877_424)">
<mask id="mask1_8877_424" style="mask-type:luminance" maskUnits="userSpaceOnUse" x="7" y="0" width="155" height="40">
<path d="M161.328 0H7.63037V40H161.328V0Z" fill="white"/>
</mask>
<g mask="url(#mask1_8877_424)">
<path d="M7.63037 3.54004H17.4235V7.17229H14.4311V23.0343H10.6227V7.17229H7.63037V3.54004Z" fill="#6BAB44"/>
<path d="M19.1465 3.54004H26.8086V7.17229H22.9549V11.4022H26.3552V15.0344H22.9549V19.4022H26.854V23.0343H19.1465V3.54004Z" fill="#6BAB44"/>
<path d="M38.7323 3.67842V7.21867C38.2336 7.08067 37.7348 6.9888 37.3268 6.9888C35.74 6.9888 34.5612 7.63242 33.6997 8.9198C32.929 10.0233 32.5662 11.4485 32.5662 13.1037C32.5662 14.7589 32.929 16.1842 33.6997 17.4255C34.6065 18.8508 35.7853 19.5864 37.3268 19.5864C37.6895 19.5864 38.1882 19.4945 38.7776 19.3107V22.9428C38.2336 23.1727 37.6442 23.2645 37.0095 23.2645C34.3798 23.2645 32.2942 22.2072 30.6621 20.0922C29.2112 18.1612 28.4858 15.8623 28.4858 13.1037C28.4858 10.529 29.2112 8.27617 30.7073 6.39105C32.3396 4.32205 34.3798 3.31055 36.8281 3.31055C37.4628 3.31055 38.0976 3.40255 38.7323 3.67842Z" fill="#6BAB44"/>
<path d="M40.6821 3.54004H44.4905V11.1723H48.3444V3.54004H52.1528V23.0343H48.3444V14.8044H44.4905V23.0343H40.6821V3.54004Z" fill="#6BAB44"/>
<path d="M55.7802 3.54004H60.7673L62.6262 15.0344H62.6715L64.213 3.54004H69.2909L71.3312 23.0343H67.432L66.5253 9.01141H66.4347L65.8453 13.7929L64.213 23.0343H61.266L59.4072 13.7009L58.7724 9.33316V9.01141H58.7272L58.183 23.0343H54.1025L55.7802 3.54004Z" fill="#0868A0"/>
<path d="M76.5901 3.54004H80.5798L85.2045 23.0343H81.1693L80.4438 19.77H76.5901L75.9101 23.0343H72.147L76.5901 3.54004ZM79.8545 16.6895L78.9023 11.4942L78.449 8.55154H78.4036L77.9956 11.4942L77.1795 16.6895H79.8545Z" fill="#0868A0"/>
<path d="M92.8661 12.1833H99.0775V13.7005C99.0775 16.3213 98.7148 18.4821 97.944 20.0454C96.9013 22.2523 95.2238 23.3098 92.9115 23.3098C90.5539 23.3098 88.7856 22.2063 87.5163 19.9534C86.5188 18.1603 86.02 15.9534 86.02 13.3788C86.02 10.6201 86.4734 8.36727 87.4255 6.62015C88.6043 4.36727 90.4179 3.21777 92.8661 3.21777C94.2716 3.21777 95.4958 3.63165 96.4933 4.50515C97.4453 5.33277 98.1254 6.43615 98.5334 7.86152L94.8156 9.33277C94.5436 7.67752 93.8636 6.85002 92.8661 6.80402C91.7326 6.75802 90.9619 7.58565 90.5085 9.33277C90.1911 10.4361 90.0551 11.7695 90.0551 13.3328C90.0551 17.6545 91.0526 19.8155 93.0021 19.8155C93.8636 19.8155 94.453 19.3098 94.861 18.2983C95.133 17.6086 95.2238 16.781 95.2238 15.8155H92.8661V12.1833Z" fill="#0868A0"/>
<path d="M101.073 3.54004H104.7L109.46 15.3102L109.506 15.2643C109.279 14.4367 109.188 13.471 109.188 12.3217V3.54004H112.997V23.0343H109.415L104.7 11.2643L104.655 11.3102L104.881 13.2873V14.0688V23.0343H101.073V3.54004Z" fill="#0868A0"/>
<path d="M119.027 3.54004H123.017L127.64 23.0343H123.605L122.88 19.77H119.027L118.347 23.0343H114.583L119.027 3.54004ZM122.337 16.6895L121.339 11.4942L120.885 8.55154H120.84L120.432 11.4942L119.617 16.6895H122.337Z" fill="#0868A0"/>
<path d="M128.23 3.54004H138.023V7.17229H134.985V23.0343H131.178V7.17229H128.23V3.54004Z" fill="#0868A0"/>
<path d="M139.747 3.54004H147.409V7.17229H143.555V11.4022H146.91V15.0344H143.555V19.4022H147.454V23.0343H139.747V3.54004Z" fill="#0868A0"/>
<path d="M8.99023 37.7491V30.3467H11.4839C12.0279 30.3467 12.4812 30.3927 12.7986 30.4387C13.2067 30.5307 13.5694 30.7146 13.8415 30.9904C14.2495 31.3123 14.5215 31.7261 14.7029 32.2318C14.8842 32.7376 14.9749 33.3352 14.9749 33.9789C14.9749 34.5307 14.9296 35.0364 14.7935 35.4962C14.6575 35.9099 14.5215 36.2778 14.2949 36.5537C14.0681 36.8296 13.8867 37.0594 13.6147 37.2433C13.3881 37.4272 13.0707 37.5192 12.7534 37.6111C12.436 37.7031 12.0279 37.7491 11.5745 37.7491H8.99023ZM9.94236 36.9214H11.4839C11.9826 36.9214 12.3452 36.8754 12.6174 36.7836C12.8894 36.6916 13.116 36.5537 13.252 36.4157C13.4787 36.1858 13.6601 35.8639 13.7961 35.4962C13.9321 35.0823 13.9775 34.6226 13.9775 34.0709C13.9775 33.2893 13.8415 32.6916 13.6147 32.2778C13.3881 31.8639 13.0707 31.5881 12.708 31.4502C12.436 31.3582 12.0279 31.3123 11.4839 31.3123H9.94236V36.9214Z" fill="#171717"/>
<path d="M19.7354 31.4042V30.3467H20.6421V31.4042H19.7354ZM19.7354 37.7491V32.4157H20.6421V37.7951L19.7354 37.7491Z" fill="#171717"/>
<path d="M25.3574 38.2064L26.2188 38.3444C26.2642 38.6203 26.3549 38.8041 26.5362 38.942C26.7629 39.126 27.0803 39.172 27.443 39.172C27.851 39.172 28.1684 39.08 28.395 38.942C28.6218 38.7581 28.7578 38.5283 28.8484 38.2524C28.8938 38.0685 28.8938 37.7006 28.8938 37.103C28.4858 37.5628 28.0324 37.7926 27.443 37.7926C26.7175 37.7926 26.1735 37.5168 25.7654 37.011C25.3574 36.4593 25.176 35.8616 25.176 35.08C25.176 34.5743 25.2667 34.1145 25.448 33.6548C25.6294 33.2409 25.9015 32.8731 26.2188 32.6433C26.5815 32.4134 26.9897 32.2754 27.443 32.2754C28.0777 32.2754 28.5764 32.5513 28.9844 33.057V32.4134H29.8005V37.057C29.8005 37.8846 29.7099 38.4823 29.5739 38.8501C29.3925 39.2179 29.1204 39.4938 28.7578 39.6778C28.395 39.8616 27.9417 39.9995 27.443 39.9995C26.8083 39.9995 26.3095 39.8616 25.9014 39.5858C25.5388 39.2179 25.312 38.8041 25.3574 38.2064ZM26.0828 34.988C26.0828 35.6778 26.2188 36.1835 26.4908 36.5053C26.7629 36.8271 27.1257 37.011 27.5337 37.011C27.9417 37.011 28.3044 36.8731 28.5764 36.5513C28.8485 36.2294 28.9844 35.7236 28.9844 35.034C28.9844 34.3904 28.8485 33.8846 28.5764 33.5628C28.3044 33.2409 27.9417 33.057 27.5337 33.057C27.1257 33.057 26.8083 33.2409 26.5362 33.5628C26.2188 33.8386 26.0828 34.3444 26.0828 34.988Z" fill="#171717"/>
<path d="M34.6975 31.4042V30.3467H35.6043V31.4042H34.6975ZM34.6975 37.7491V32.4157H35.6043V37.7951L34.6975 37.7491Z" fill="#171717"/>
<path d="M42.4047 36.969L42.5407 37.7506C42.2685 37.7966 42.0873 37.8426 41.8605 37.8426C41.5432 37.8426 41.2712 37.7966 41.0898 37.7046C40.9084 37.6126 40.7724 37.4747 40.727 37.2908C40.6364 37.1068 40.6364 36.7391 40.6364 36.2333V33.107H39.9563V32.4172H40.6364V31.084L41.5432 30.5322V32.4172H42.4499V33.107H41.5432V36.2333C41.5432 36.5092 41.5432 36.6471 41.5885 36.7391C41.6339 36.8311 41.6792 36.877 41.7245 36.923C41.8152 36.969 41.9059 36.969 42.0419 36.969C42.0873 37.015 42.2233 36.969 42.4047 36.969Z" fill="#171717"/>
<path d="M50.248 37.1049C49.9306 37.3808 49.6133 37.6107 49.2959 37.7027C48.9785 37.8406 48.6611 37.8866 48.2985 37.8866C47.7091 37.8866 47.2557 37.7486 46.9837 37.4728C46.6663 37.1969 46.5303 36.8291 46.5303 36.3693C46.5303 36.0934 46.5757 35.8636 46.7117 35.6337C46.8477 35.4038 46.9836 35.2658 47.165 35.1279C47.3464 34.9901 47.573 34.8981 47.7998 34.8061C47.9812 34.7601 48.2532 34.7142 48.6159 34.6682C49.3413 34.5762 49.8854 34.4843 50.2026 34.3463C50.2026 34.2084 50.2026 34.1624 50.2026 34.1164C50.2026 33.7486 50.112 33.4728 49.9307 33.3348C49.704 33.1509 49.3413 33.0129 48.9333 33.0129C48.5252 33.0129 48.2078 33.1049 47.9812 33.2429C47.7998 33.3808 47.6184 33.6567 47.5278 34.0244L46.6663 33.8866C46.757 33.5187 46.893 33.1969 47.0744 32.9671C47.2557 32.7372 47.5278 32.5532 47.8452 32.4153C48.2078 32.2773 48.5705 32.2314 49.0239 32.2314C49.4773 32.2314 49.84 32.2773 50.112 32.4153C50.384 32.5072 50.6108 32.6452 50.7468 32.8291C50.8828 33.0129 50.9734 33.1969 51.0188 33.4728C51.0641 33.6107 51.0642 33.8866 51.0642 34.3003V35.4957C51.0642 36.3233 51.0642 36.8751 51.1095 37.1049C51.1548 37.3348 51.2002 37.5647 51.3362 37.7486H50.384C50.3388 37.5647 50.2934 37.3348 50.248 37.1049ZM50.1574 35.0819C49.84 35.2199 49.3413 35.3118 48.7065 35.4038C48.3438 35.4498 48.0718 35.4958 47.9358 35.5877C47.7998 35.6797 47.6638 35.7716 47.573 35.8636C47.4824 36.0014 47.437 36.1394 47.437 36.2773C47.437 36.5072 47.5278 36.7372 47.7092 36.8751C47.8904 37.0589 48.1625 37.1049 48.4799 37.1049C48.8425 37.1049 49.1145 37.0129 49.3867 36.8751C49.6587 36.7372 49.84 36.5072 49.976 36.2314C50.0667 36.0474 50.112 35.7257 50.112 35.3118L50.1574 35.0819Z" fill="#171717"/>
<path d="M55.9609 37.7491V30.3467H56.8677V37.7491H55.9609Z" fill="#171717"/>
<path d="M68.248 37.7491V30.3467H73.462V31.2203H69.2002V33.5192H73.19V34.3927H69.2002V36.9214H73.6434V37.7491H68.248Z" fill="#171717"/>
<path d="M77.7688 37.7504L79.673 34.9917L77.9049 32.417H78.9929L79.809 33.7044C79.945 33.9342 80.0811 34.1181 80.1718 34.302C80.3078 34.0721 80.4438 33.8882 80.5798 33.7044L81.4413 32.417H82.5294L80.7158 34.9917L82.62 37.7504H81.5319L80.4438 36.0951L80.2172 35.6814L78.8117 37.7504H77.7688Z" fill="#171717"/>
<path d="M90.4182 35.8156L91.2797 35.9535C91.189 36.5513 90.9623 37.057 90.5542 37.3789C90.1462 37.7466 89.6928 37.8846 89.1035 37.8846C88.378 37.8846 87.7886 37.6548 87.3806 37.149C86.9272 36.6891 86.7458 35.9995 86.7458 35.08C86.7458 34.4823 86.8365 33.9765 87.0178 33.5628C87.1992 33.149 87.4712 32.8271 87.8792 32.5973C88.242 32.3674 88.6953 32.2754 89.1487 32.2754C89.7382 32.2754 90.1916 32.4134 90.5542 32.7351C90.917 33.011 91.1436 33.4708 91.2343 33.9765L90.3728 34.1145C90.2822 33.7466 90.1462 33.4708 89.9195 33.2869C89.6928 33.103 89.4661 33.011 89.1487 33.011C88.6953 33.011 88.3327 33.1949 88.0606 33.5168C87.7886 33.8386 87.6526 34.3444 87.6526 35.08C87.6526 35.8156 87.7886 36.3214 88.0606 36.6433C88.3327 36.965 88.6953 37.149 89.1035 37.149C89.4661 37.149 89.7382 37.057 89.9648 36.8271C90.2368 36.5973 90.3728 36.2754 90.4182 35.8156Z" fill="#171717"/>
<path d="M99.1687 36.0483L100.075 36.1862C99.9394 36.738 99.6674 37.1517 99.2594 37.4736C98.8513 37.7955 98.3525 37.9333 97.7632 37.9333C96.9924 37.9333 96.403 37.7035 95.9497 37.1977C95.4963 36.738 95.2695 36.0483 95.2695 35.1747C95.2695 34.2552 95.4963 33.5656 95.9497 33.0598C96.403 32.5541 96.9924 32.3242 97.7178 32.3242C98.3979 32.3242 98.9873 32.5541 99.4407 33.0598C99.894 33.5656 100.121 34.2552 100.121 35.1288C100.121 35.1747 100.121 35.2667 100.121 35.3587H96.1763C96.2217 35.9563 96.3577 36.4161 96.675 36.692C96.947 37.0138 97.3552 37.1517 97.7632 37.1517C98.0805 37.1517 98.3525 37.0598 98.5793 36.876C98.8513 36.692 99.0327 36.4161 99.1687 36.0483ZM96.267 34.5771H99.214C99.1687 34.1173 99.078 33.7955 98.8967 33.5656C98.6247 33.1977 98.2619 33.0598 97.8085 33.0598C97.4005 33.0598 97.0378 33.1977 96.7658 33.4736C96.4484 33.7495 96.3124 34.1173 96.267 34.5771Z" fill="#171717"/>
<path d="M104.745 37.7491V30.3467H105.652V37.7491H104.745Z" fill="#171717"/>
<path d="M110.548 37.7491V30.3467H111.41V37.7491H110.548Z" fill="#171717"/>
<path d="M119.933 36.0483L120.84 36.1862C120.704 36.738 120.432 37.1517 120.024 37.4736C119.617 37.7955 119.118 37.9333 118.528 37.9333C117.757 37.9333 117.168 37.7035 116.714 37.1977C116.261 36.738 116.034 36.0483 116.034 35.1747C116.034 34.2552 116.261 33.5656 116.714 33.0598C117.168 32.5541 117.757 32.3242 118.483 32.3242C119.163 32.3242 119.752 32.5541 120.205 33.0598C120.659 33.5656 120.885 34.2552 120.885 35.1288C120.885 35.1747 120.885 35.2667 120.885 35.3587H116.986C117.032 35.9563 117.168 36.4161 117.485 36.692C117.757 37.0138 118.165 37.1517 118.573 37.1517C118.89 37.1517 119.163 37.0598 119.389 36.876C119.617 36.692 119.798 36.4161 119.933 36.0483ZM116.986 34.5771H119.933C119.888 34.1173 119.798 33.7955 119.617 33.5656C119.344 33.1977 118.982 33.0598 118.528 33.0598C118.12 33.0598 117.757 33.1977 117.485 33.4736C117.168 33.7495 117.032 34.1173 116.986 34.5771Z" fill="#171717"/>
<path d="M125.51 37.7495V32.4161H126.327V33.1977C126.735 32.6001 127.279 32.3242 128.004 32.3242C128.322 32.3242 128.594 32.3702 128.865 32.5081C129.138 32.646 129.319 32.784 129.455 32.9678C129.592 33.1517 129.682 33.3817 129.727 33.6575C129.773 33.8415 129.773 34.1173 129.773 34.5311V37.8415H128.865V34.5771C128.865 34.2092 128.82 33.9333 128.775 33.7495C128.684 33.5656 128.594 33.4276 128.413 33.2897C128.23 33.1977 128.049 33.1058 127.778 33.1058C127.415 33.1058 127.052 33.2437 126.78 33.4736C126.508 33.7035 126.371 34.1632 126.371 34.853V37.7955L125.51 37.7495Z" fill="#171717"/>
<path d="M138.114 35.8156L138.975 35.9535C138.885 36.5513 138.658 37.057 138.25 37.3789C137.843 37.7466 137.389 37.8846 136.799 37.8846C136.074 37.8846 135.484 37.6548 135.076 37.149C134.623 36.6891 134.441 35.9995 134.441 35.08C134.441 34.4823 134.533 33.9765 134.714 33.5628C134.895 33.149 135.168 32.8271 135.575 32.5973C135.938 32.3674 136.391 32.2754 136.845 32.2754C137.434 32.2754 137.888 32.4134 138.25 32.7351C138.613 33.011 138.839 33.4708 138.93 33.9765L138.069 34.1145C137.978 33.7466 137.843 33.4708 137.615 33.2869C137.389 33.103 137.161 33.011 136.845 33.011C136.391 33.011 136.029 33.1949 135.756 33.5168C135.484 33.8386 135.349 34.3444 135.349 35.08C135.349 35.8156 135.484 36.3214 135.756 36.6433C136.029 36.965 136.391 37.149 136.799 37.149C137.161 37.149 137.434 37.057 137.66 36.8271C137.888 36.5973 138.069 36.2754 138.114 35.8156Z" fill="#171717"/>
<path d="M146.864 36.0483L147.772 36.1862C147.635 36.738 147.363 37.1517 146.955 37.4736C146.547 37.7955 146.048 37.9333 145.459 37.9333C144.688 37.9333 144.099 37.7035 143.645 37.1977C143.192 36.738 142.965 36.0483 142.965 35.1747C142.965 34.2552 143.192 33.5656 143.645 33.0598C144.099 32.5541 144.688 32.3242 145.414 32.3242C146.139 32.3242 146.683 32.5541 147.137 33.0598C147.59 33.5656 147.817 34.2552 147.817 35.1288C147.817 35.1747 147.817 35.2667 147.817 35.3587H143.872C143.918 35.9563 144.054 36.4161 144.37 36.692C144.643 37.0138 145.052 37.1517 145.459 37.1517C145.777 37.1517 146.048 37.0598 146.275 36.876C146.547 36.692 146.729 36.4161 146.864 36.0483ZM143.918 34.5771H146.864C146.819 34.1173 146.729 33.7955 146.547 33.5656C146.275 33.1977 145.913 33.0598 145.459 33.0598C145.052 33.0598 144.688 33.1977 144.417 33.4736C144.144 33.7495 143.963 34.1173 143.918 34.5771Z" fill="#171717"/>
<path fill-rule="evenodd" clip-rule="evenodd" d="M8.40112 27.0801H147.545V27.31H8.40112V27.0801Z" stroke="#171717" stroke-width="1.25" stroke-miterlimit="10"/>
<path d="M153.074 9.1205V4.14425H155.562C155.76 4.14425 155.978 4.20275 156.213 4.31963C156.448 4.432 156.648 4.60725 156.812 4.8455C156.98 5.07925 157.064 5.376 157.064 5.73563C157.064 6.09975 156.978 6.40988 156.805 6.66613C156.632 6.91788 156.422 7.10888 156.173 7.23925C155.929 7.36963 155.699 7.43475 155.482 7.43475H153.687V6.62563H155.149C155.295 6.62563 155.453 6.5515 155.622 6.40313C155.794 6.25475 155.88 6.03238 155.88 5.73563C155.88 5.42988 155.794 5.22313 155.622 5.11525C155.453 5.00738 155.304 4.95338 155.175 4.95338H154.152V9.1205H153.074ZM156.04 6.774L157.263 9.1205H156.08L154.883 6.774H156.04ZM154.937 12.0874C154.2 12.0874 153.512 11.948 152.868 11.6693C152.225 11.3906 151.66 11.004 151.173 10.5095C150.685 10.0151 150.304 9.44188 150.029 8.79013C149.754 8.13825 149.617 7.43925 149.617 6.69313C149.617 5.94688 149.754 5.24788 150.029 4.59613C150.304 3.94425 150.685 3.37113 151.173 2.87663C151.66 2.38218 152.225 1.99559 152.868 1.71689C153.512 1.43818 154.2 1.29883 154.937 1.29883C155.672 1.29883 156.362 1.43818 157.004 1.71689C157.647 1.99559 158.213 2.38218 158.699 2.87663C159.188 3.37113 159.569 3.94425 159.844 4.59613C160.118 5.24788 160.255 5.94688 160.255 6.69313C160.255 7.43925 160.118 8.13825 159.844 8.79013C159.569 9.44188 159.188 10.0151 158.699 10.5095C158.213 11.004 157.647 11.3906 157.004 11.6693C156.362 11.948 155.672 12.0874 154.937 12.0874ZM154.937 10.7928C155.682 10.7928 156.359 10.6084 156.97 10.2398C157.583 9.87125 158.07 9.37675 158.434 8.75638C158.797 8.136 158.979 7.44825 158.979 6.69313C158.979 5.93788 158.797 5.25013 158.434 4.62975C158.07 4.0095 157.583 3.515 156.97 3.14638C156.359 2.77775 155.682 2.5935 154.937 2.5935C154.192 2.5935 153.513 2.77775 152.902 3.14638C152.29 3.515 151.803 4.0095 151.439 4.62975C151.075 5.25013 150.894 5.93788 150.894 6.69313C150.894 7.44825 151.075 8.136 151.439 8.75638C151.803 9.37675 152.29 9.87125 152.902 10.2398C153.513 10.6084 154.192 10.7928 154.937 10.7928Z" fill="#171717"/>
</g>
</g>
</svg>
